<svg width="600" height="380" viewBox="0 0 600 380" fill="none" xmlns="http://www.w3.org/2000/svg">
<g clip-path="url(#clip0_13_4)">
<rect width="600" height="380" rx="35" fill="#F57655"/>
<path d="M248.401 395.025C265.951 344.554 223.786 362.393 223.786 362.393C223.786 362.393 201.51 418.224 124.067 466.233C27.2623 526.244 -30.5497 434.879 -33.8049 376.841C-37.0601 318.803 58.0493 262.526 130.407 254.829C202.764 247.132 172.518 226.996 92.7014 231.472C12.8845 235.949 -69.8148 124.147 -51.3018 64.8881C-32.7888 5.6294 64.3546 -14.3743 144.206 46.6449C224.057 107.664 208.527 90.3413 187.742 44.2031C166.957 -1.93518 173.365 -82.3476 204.186 -116.825C235.008 -151.303 314.418 -163.034 357.988 -99.9803C401.559 -36.9262 339.86 91.4468 356.09 125.73C369 153 364 113 403.017 53.9613C444.121 -8.2344 546.274 -52.3205 615.851 20.1912C685.428 92.703 545.8 198.781 495.414 208.885C445.028 218.988 413.002 217.395 432.646 237.877C452.279 258.347 528.88 221.563 601.882 290.244C674.884 358.925 631.178 423.235 575.367 466.392C519.557 509.549 417.42 384.282 401.077 352.449C384.733 320.617 341.273 315.777 369.722 368.763C398.17 421.749 405.29 548.707 356.939 595.084C308.588 641.461 237.417 605.427 211.987 541.355C186.556 477.283 226.464 458.115 248.401 395.025Z" fill="#FF9F6C"/>
<path d="M376 219.003C376 266.499 338.496 315.503 291 315.503C243.504 315.503 205 276.999 205 229.503C205 182.006 246.31 154.284 291 154.003C332.787 153.74 376 171.506 376 219.003Z" fill="#2D4D73"/>
<path d="M339 224.871C339 256.927 315.972 290 286.807 290C257.643 290 234 264.014 234 231.958C234 199.902 259.366 181.192 286.807 181.002C312.466 180.824 339 192.815 339 224.871Z" fill="#48678B"/>
<path d="M196.288 241.8H207.88C208.432 241.8 208.9 242.004 209.284 242.412C209.692 242.796 209.896 243.264 209.896 243.816V262.86H211.3C211.852 262.86 212.32 263.064 212.704 263.472C213.112 263.856 213.316 264.324 213.316 264.876V269.484C213.316 270.036 213.112 270.504 212.704 270.888C212.32 271.296 211.84 271.5 211.264 271.5C210.664 271.5 210.16 271.296 209.752 270.888C209.368 270.504 209.176 270.036 209.176 269.484V267H191.572V269.484C191.572 270.036 191.368 270.504 190.96 270.888C190.576 271.296 190.096 271.5 189.52 271.5C188.92 271.5 188.416 271.296 188.008 270.888C187.624 270.504 187.432 270.036 187.432 269.484V264.876C187.432 264.324 187.624 263.856 188.008 263.472C188.416 263.064 188.896 262.86 189.448 262.86H190.132C190.876 261.972 191.668 260.1 192.508 257.244C193.348 254.436 193.852 250.968 194.02 246.84L194.164 243.816C194.212 243.264 194.44 242.796 194.848 242.412C195.256 242.004 195.736 241.8 196.288 241.8ZM194.992 262.86H205.504V245.94H198.556L198.16 250.332C197.944 253.356 197.5 256.008 196.828 258.288C196.132 260.664 195.52 262.188 194.992 262.86ZM215.471 262.248C215.471 260.568 216.011 259.272 217.091 258.36C218.171 257.448 219.599 256.992 221.375 256.992C222.839 256.992 224.063 257.34 225.047 258.036V257.532C225.047 256.26 224.807 255.336 224.327 254.76C223.871 254.16 223.103 253.86 222.023 253.86C221.063 253.86 220.223 253.98 219.503 254.22C219.143 254.316 218.867 254.364 218.675 254.364C218.027 254.364 217.559 254.076 217.271 253.5C217.175 253.308 217.127 253.08 217.127 252.816C217.127 252.096 217.523 251.58 218.315 251.268C219.635 250.692 221.015 250.404 222.455 250.404C224.711 250.404 226.355 250.956 227.387 252.06C228.419 253.164 228.935 254.856 228.935 257.136V265.38C228.935 265.884 228.755 266.316 228.395 266.676C228.035 267.036 227.603 267.216 227.099 267.216C226.571 267.216 226.139 267.036 225.803 266.676C225.491 266.316 225.335 265.848 225.335 265.272C224.303 266.568 222.707 267.216 220.547 267.216C219.011 267.216 217.775 266.772 216.839 265.884C215.927 264.972 215.471 263.76 215.471 262.248ZM225.047 262.248V260.592C224.375 260.064 223.427 259.8 222.203 259.8C221.435 259.8 220.811 259.98 220.331 260.34C219.851 260.7 219.611 261.192 219.611 261.816C219.611 262.392 219.827 262.86 220.259 263.22C220.691 263.556 221.243 263.724 221.915 263.724C223.307 263.724 224.351 263.232 225.047 262.248ZM237.319 256.056V262.608C238.303 263.232 239.443 263.544 240.739 263.544C242.107 263.544 243.199 263.1 244.015 262.212C244.855 261.324 245.275 260.172 245.275 258.756C245.275 257.412 244.891 256.332 244.123 255.516C243.379 254.7 242.347 254.292 241.027 254.292C239.587 254.292 238.351 254.88 237.319 256.056ZM233.179 272.184V252.888C233.179 252.144 233.371 251.568 233.755 251.16C234.139 250.752 234.655 250.548 235.303 250.548C235.879 250.548 236.359 250.716 236.743 251.052C237.127 251.388 237.319 251.808 237.319 252.312C238.519 251.04 240.187 250.404 242.323 250.404C244.555 250.404 246.331 251.172 247.651 252.708C248.995 254.268 249.667 256.248 249.667 258.648C249.667 261.168 248.875 263.256 247.291 264.912C245.707 266.568 243.643 267.396 241.099 267.396C239.467 267.396 238.207 267.132 237.319 266.604V272.184C237.319 272.736 237.115 273.204 236.707 273.588C236.323 273.996 235.843 274.2 235.267 274.2C234.667 274.2 234.163 273.996 233.755 273.588C233.371 273.204 233.179 272.736 233.179 272.184ZM269.093 252.78V265.272C269.093 265.824 268.889 266.304 268.481 266.712C268.097 267.096 267.617 267.288 267.041 267.288C266.441 267.288 265.937 267.096 265.529 266.712C265.145 266.304 264.953 265.824 264.953 265.272V256.92L258.221 265.74C257.429 266.772 256.553 267.288 255.593 267.288C254.897 267.288 254.333 267.072 253.901 266.64C253.469 266.184 253.253 265.62 253.253 264.948V252.564C253.253 252.012 253.445 251.544 253.829 251.16C254.237 250.752 254.741 250.548 255.341 250.548C255.917 250.548 256.397 250.752 256.781 251.16C257.189 251.544 257.393 252.012 257.393 252.564V260.916L264.125 252.096C264.869 251.064 265.733 250.548 266.717 250.548C267.437 250.548 268.013 250.764 268.445 251.196C268.877 251.604 269.093 252.132 269.093 252.78ZM281.49 254.94V265.272C281.49 265.824 281.286 266.304 280.878 266.712C280.494 267.096 280.014 267.288 279.438 267.288C278.838 267.288 278.334 267.096 277.926 266.712C277.542 266.304 277.35 265.824 277.35 265.272V254.94H274.038C273.486 254.94 273.006 254.748 272.598 254.364C272.214 253.956 272.022 253.452 272.022 252.852C272.022 252.276 272.214 251.796 272.598 251.412C273.006 251.004 273.486 250.8 274.038 250.8H284.766C285.318 250.8 285.786 251.004 286.17 251.412C286.578 251.796 286.782 252.276 286.782 252.852C286.782 253.452 286.578 253.956 286.17 254.364C285.786 254.748 285.318 254.94 284.766 254.94H281.49ZM300.306 257.388V257.316C300.306 256.284 299.97 255.456 299.298 254.832C298.626 254.184 297.726 253.86 296.598 253.86C294.246 253.86 292.83 255.036 292.35 257.388H300.306ZM302.826 260.16H292.494C292.662 261.336 293.178 262.26 294.042 262.932C294.93 263.604 296.034 263.94 297.354 263.94C298.434 263.94 299.442 263.736 300.378 263.328C300.738 263.16 301.05 263.076 301.314 263.076C301.842 263.076 302.274 263.328 302.61 263.832C302.778 264.096 302.862 264.36 302.862 264.624C302.862 265.224 302.586 265.692 302.034 266.028C300.474 266.94 298.77 267.396 296.922 267.396C294.33 267.396 292.23 266.616 290.622 265.056C289.014 263.52 288.21 261.468 288.21 258.9C288.21 256.476 288.99 254.448 290.55 252.816C292.086 251.208 294.162 250.404 296.778 250.404C298.938 250.404 300.75 251.1 302.214 252.492C303.702 253.908 304.446 255.72 304.446 257.928V258.684C304.326 259.668 303.786 260.16 302.826 260.16ZM323.359 261.492L319.831 257.244V265.272C319.831 265.824 319.627 266.304 319.219 266.712C318.835 267.096 318.355 267.288 317.779 267.288C317.179 267.288 316.675 267.096 316.267 266.712C315.883 266.304 315.691 265.824 315.691 265.272V252.816C315.691 252.144 315.895 251.604 316.303 251.196C316.711 250.764 317.239 250.548 317.887 250.548C318.655 250.548 319.459 251.04 320.299 252.024L324.943 257.712L329.335 252.024C330.103 251.04 330.883 250.548 331.675 250.548C332.323 250.548 332.839 250.74 333.223 251.124C333.607 251.484 333.799 251.964 333.799 252.564V265.272C333.799 265.824 333.595 266.304 333.187 266.712C332.803 267.096 332.323 267.288 331.747 267.288C331.147 267.288 330.643 267.096 330.235 266.712C329.851 266.304 329.659 265.824 329.659 265.272V257.244L326.275 261.492C325.891 261.996 325.411 262.248 324.835 262.248C324.283 262.248 323.791 261.996 323.359 261.492ZM349.49 257.388V257.316C349.49 256.284 349.154 255.456 348.482 254.832C347.81 254.184 346.91 253.86 345.782 253.86C343.43 253.86 342.014 255.036 341.534 257.388H349.49ZM352.01 260.16H341.678C341.846 261.336 342.362 262.26 343.226 262.932C344.114 263.604 345.218 263.94 346.538 263.94C347.618 263.94 348.626 263.736 349.562 263.328C349.922 263.16 350.234 263.076 350.498 263.076C351.026 263.076 351.458 263.328 351.794 263.832C351.962 264.096 352.046 264.36 352.046 264.624C352.046 265.224 351.77 265.692 351.218 266.028C349.658 266.94 347.954 267.396 346.106 267.396C343.514 267.396 341.414 266.616 339.806 265.056C338.198 263.52 337.394 261.468 337.394 258.9C337.394 256.476 338.174 254.448 339.734 252.816C341.27 251.208 343.346 250.404 345.962 250.404C348.122 250.404 349.934 251.1 351.398 252.492C352.886 253.908 353.63 255.72 353.63 257.928V258.684C353.51 259.668 352.97 260.16 352.01 260.16ZM366.173 257.82V252.564C366.173 252.012 366.365 251.544 366.749 251.16C367.157 250.752 367.661 250.548 368.261 250.548C368.837 250.548 369.317 250.752 369.701 251.16C370.109 251.544 370.313 252.012 370.313 252.564V265.272C370.313 265.824 370.109 266.304 369.701 266.712C369.317 267.096 368.837 267.288 368.261 267.288C367.661 267.288 367.157 267.096 366.749 266.712C366.365 266.304 366.173 265.824 366.173 265.272V261.42C364.973 262.044 363.629 262.356 362.141 262.356C360.125 262.356 358.637 261.828 357.677 260.772C356.741 259.716 356.273 258.12 356.273 255.984V252.636C356.273 252.036 356.477 251.544 356.885 251.16C357.317 250.752 357.857 250.548 358.505 250.548C359.153 250.548 359.681 250.74 360.089 251.124C360.497 251.508 360.701 252.012 360.701 252.636V255.48C360.701 257.472 361.577 258.468 363.329 258.468C364.457 258.468 365.405 258.252 366.173 257.82ZM382.705 254.94V265.272C382.705 265.824 382.501 266.304 382.093 266.712C381.709 267.096 381.229 267.288 380.653 267.288C380.053 267.288 379.549 267.096 379.141 266.712C378.757 266.304 378.565 265.824 378.565 265.272V254.94H375.253C374.701 254.94 374.221 254.748 373.813 254.364C373.429 253.956 373.237 253.452 373.237 252.852C373.237 252.276 373.429 251.796 373.813 251.412C374.221 251.004 374.701 250.8 375.253 250.8H385.981C386.533 250.8 387.001 251.004 387.385 251.412C387.793 251.796 387.997 252.276 387.997 252.852C387.997 253.452 387.793 253.956 387.385 254.364C387.001 254.748 386.533 254.94 385.981 254.94H382.705ZM395.065 252.564V255.228H397.081C399.505 255.228 401.293 255.732 402.445 256.74C403.621 257.748 404.209 259.116 404.209 260.844C404.209 262.692 403.585 264.18 402.337 265.308C401.089 266.436 399.229 267 396.757 267H392.941C392.389 267 391.909 266.808 391.501 266.424C391.117 266.016 390.925 265.536 390.925 264.984V252.564C390.925 252.012 391.117 251.544 391.501 251.16C391.909 250.752 392.413 250.548 393.013 250.548C393.589 250.548 394.069 250.752 394.453 251.16C394.861 251.544 395.065 252.012 395.065 252.564ZM410.653 252.564V265.272C410.653 265.824 410.449 266.304 410.041 266.712C409.657 267.096 409.177 267.288 408.601 267.288C408.001 267.288 407.497 267.096 407.089 266.712C406.705 266.304 406.513 265.824 406.513 265.272V252.564C406.513 252.012 406.705 251.544 407.089 251.16C407.497 250.752 408.001 250.548 408.601 250.548C409.177 250.548 409.657 250.752 410.041 251.16C410.449 251.544 410.653 252.012 410.653 252.564ZM395.065 258.54V263.4H396.685C398.773 263.4 399.817 262.596 399.817 260.988C399.817 259.356 398.785 258.54 396.721 258.54H395.065Z" fill="white"/>
<path d="M130.14 149C130.14 143.627 126.803 140.94 120.13 140.94C116.923 140.94 114.497 141.72 112.85 143.28C111.29 144.753 110.51 146.66 110.51 149C110.51 151.253 111.29 153.247 112.85 154.98C114.41 156.627 116.663 157.45 119.61 157.45H121.3C124.16 157.45 126.327 156.627 127.8 154.98C129.36 153.247 130.14 151.253 130.14 149ZM108.3 186.57C108.3 189.343 109.253 191.64 111.16 193.46C113.153 195.193 116.187 196.06 120.26 196.06C128.493 196.06 132.523 192.897 132.35 186.57C132.263 183.45 131.223 181.067 129.23 179.42C127.237 177.773 124.593 176.95 121.3 176.95H119.74C116.62 176.95 113.933 177.817 111.68 179.55C109.427 181.197 108.3 183.537 108.3 186.57ZM150.94 145.49C150.94 149.997 149.77 154.2 147.43 158.1C145.177 162 142.013 164.99 137.94 167.07C142.187 168.37 145.783 170.927 148.73 174.74C151.677 178.467 153.15 183.147 153.15 188.78C153.15 197.187 150.117 203.773 144.05 208.54C137.983 213.22 130.097 215.56 120.39 215.56C110.77 215.56 102.883 213.307 96.73 208.8C90.5767 204.207 87.5 198.097 87.5 190.47C87.5 184.75 88.8 179.94 91.4 176.04C94 172.053 97.3367 169.107 101.41 167.2C93.61 162.78 89.71 155.543 89.71 145.49C89.71 138.47 92.6133 132.707 98.42 128.2C104.313 123.693 111.593 121.44 120.26 121.44C128.927 121.44 136.207 123.693 142.1 128.2C147.993 132.707 150.94 138.47 150.94 145.49ZM222.526 196.19L212.386 185.27V206.2C212.386 208.713 211.433 210.88 209.526 212.7C207.706 214.433 205.41 215.3 202.636 215.3C199.863 215.3 197.523 214.433 195.616 212.7C193.796 210.88 192.886 208.713 192.886 206.2V165.64C192.886 162.693 193.883 160.18 195.876 158.1C197.87 155.933 200.426 154.85 203.546 154.85C207.793 154.85 211.693 156.887 215.246 160.96L227.986 175.39L239.686 161.09C243.066 156.93 246.88 154.85 251.126 154.85C253.986 154.85 256.37 155.847 258.276 157.84C260.27 159.747 261.266 162 261.266 164.6V206.2C261.266 208.713 260.313 210.88 258.406 212.7C256.586 214.433 254.29 215.3 251.516 215.3C248.743 215.3 246.403 214.433 244.496 212.7C242.676 210.88 241.766 208.713 241.766 206.2V185.27L232.276 196.06C230.976 197.533 229.33 198.27 227.336 198.27C225.43 198.27 223.826 197.577 222.526 196.19ZM290.743 215.3C285.369 215.3 280.949 213.61 277.483 210.23C274.016 206.763 272.283 202.127 272.283 196.32C272.283 189.993 274.233 185.183 278.133 181.89C282.119 178.597 287.189 176.95 293.343 176.95C298.196 176.95 302.009 178.033 304.783 180.2V179.03C304.783 173.137 302.096 170.19 296.723 170.19C294.036 170.19 291.306 170.58 288.533 171.36C288.013 171.533 287.276 171.62 286.323 171.62C282.769 171.62 280.386 169.8 279.173 166.16C278.913 165.467 278.783 164.773 278.783 164.08C278.783 162.433 279.346 160.873 280.473 159.4C281.686 157.927 283.203 156.843 285.023 156.15C288.923 154.677 293.473 153.94 298.673 153.94C307.339 153.94 313.536 156.02 317.263 160.18C321.076 164.34 322.983 170.537 322.983 178.77V205.68C322.983 208.627 322.159 210.967 320.513 212.7C318.866 214.433 316.916 215.3 314.663 215.3C310.243 215.3 307.383 213.09 306.083 208.67C303.309 213.09 298.196 215.3 290.743 215.3ZM304.783 195.54V191.9C302.963 190.6 300.493 189.95 297.373 189.95C295.726 189.95 294.383 190.34 293.343 191.12C292.303 191.9 291.783 192.983 291.783 194.37C291.783 195.67 292.303 196.753 293.343 197.62C294.383 198.487 295.726 198.92 297.373 198.92C300.579 198.92 303.049 197.793 304.783 195.54ZM355.463 177.34V195.15C357.976 196.623 361.009 197.36 364.563 197.36C368.636 197.36 371.713 196.147 373.793 193.72C375.959 191.207 377.043 188.043 377.043 184.23C377.043 180.677 376.003 177.773 373.923 175.52C371.929 173.267 369.156 172.14 365.603 172.14C361.963 172.14 358.583 173.873 355.463 177.34ZM346.623 154.85C350.436 154.85 353.383 156.497 355.463 159.79C359.536 155.89 364.953 153.94 371.713 153.94C379.513 153.94 385.796 156.757 390.563 162.39C395.416 167.937 397.843 175.087 397.843 183.84C397.843 192.94 394.939 200.523 389.133 206.59C383.326 212.57 375.743 215.56 366.383 215.56C361.963 215.56 358.323 214.953 355.463 213.74V230.9C355.463 233.413 354.509 235.537 352.603 237.27C350.783 239.09 348.486 240 345.713 240C342.939 240 340.599 239.09 338.693 237.27C336.873 235.537 335.963 233.413 335.963 230.9V164.6C335.963 161.913 336.916 159.617 338.823 157.71C340.816 155.803 343.416 154.85 346.623 154.85ZM438.398 175V206.2C438.398 208.713 437.445 210.88 435.538 212.7C433.718 214.433 431.422 215.3 428.648 215.3C425.875 215.3 423.535 214.433 421.628 212.7C419.808 210.88 418.898 208.713 418.898 206.2V175H411.098C408.585 175 406.418 174.09 404.598 172.27C402.865 170.363 401.998 168.023 401.998 165.25C401.998 162.477 402.865 160.18 404.598 158.36C406.418 156.453 408.585 155.5 411.098 155.5H446.198C448.712 155.5 450.835 156.453 452.568 158.36C454.388 160.18 455.298 162.477 455.298 165.25C455.298 168.023 454.388 170.363 452.568 172.27C450.835 174.09 448.712 175 446.198 175H438.398ZM480.284 215.3C474.91 215.3 470.49 213.61 467.024 210.23C463.557 206.763 461.824 202.127 461.824 196.32C461.824 189.993 463.774 185.183 467.674 181.89C471.66 178.597 476.73 176.95 482.884 176.95C487.737 176.95 491.55 178.033 494.324 180.2V179.03C494.324 173.137 491.637 170.19 486.264 170.19C483.577 170.19 480.847 170.58 478.074 171.36C477.554 171.533 476.817 171.62 475.864 171.62C472.31 171.62 469.927 169.8 468.714 166.16C468.454 165.467 468.324 164.773 468.324 164.08C468.324 162.433 468.887 160.873 470.014 159.4C471.227 157.927 472.744 156.843 474.564 156.15C478.464 154.677 483.014 153.94 488.214 153.94C496.88 153.94 503.077 156.02 506.804 160.18C510.617 164.34 512.524 170.537 512.524 178.77V205.68C512.524 208.627 511.7 210.967 510.054 212.7C508.407 214.433 506.457 215.3 504.204 215.3C499.784 215.3 496.924 213.09 495.624 208.67C492.85 213.09 487.737 215.3 480.284 215.3ZM494.324 195.54V191.9C492.504 190.6 490.034 189.95 486.914 189.95C485.267 189.95 483.924 190.34 482.884 191.12C481.844 191.9 481.324 192.983 481.324 194.37C481.324 195.67 481.844 196.753 482.884 197.62C483.924 198.487 485.267 198.92 486.914 198.92C490.12 198.92 492.59 197.793 494.324 195.54Z" fill="white"/>
<path d="M159.874 105.976C155.678 106.347 152.643 112.743 151.495 116.087C152.263 117.521 154.073 120.837 155.172 122.627C156.27 124.418 159.037 135.255 160.283 140.45C161.49 141.259 164.83 143.07 168.525 143.838C173.145 144.799 176.144 143.028 178.608 141.791C181.072 140.553 181.105 136.87 180.142 134.654C179.179 132.438 174.301 128.888 170.323 128.482C166.345 128.077 165.157 126.725 164.572 123.845C163.987 120.964 167.815 113.964 167.608 110.419C167.402 106.873 162.765 105.72 159.874 105.976Z" fill="#FFC3DC"/>
<path d="M134.243 117.139C137.378 114.324 143.589 116.158 146.817 117.6C147.342 119.14 148.531 122.725 149.091 124.75C149.65 126.775 156.498 136.449 159.446 140.904C159.214 142.339 157.935 145.423 155.975 148.649C153.526 152.682 149.697 154.002 147.111 154.959C144.526 155.916 142.513 153.433 141.55 151.217C140.587 149.001 140.617 143.007 143.034 139.822C145.452 136.637 146.337 135.296 144.63 132.903C142.922 130.51 134.375 127.955 131.924 125.384C129.473 122.814 132.084 119.078 134.243 117.139Z" fill="#FFC3DC"/>
<path fill-rule="evenodd" clip-rule="evenodd" d="M144.433 111.886C145.069 112.152 146.144 113.494 146.816 114.425C146.987 113.857 147.247 113.346 147.616 112.915C147.939 113.025 148.326 113.189 148.754 113.412C148.553 112.308 148.373 110.864 148.588 110.28C148.941 109.327 149.646 108.187 150.335 107.854C150.434 107.806 150.544 107.75 150.66 107.691C151.349 107.34 152.259 106.875 152.529 107.3C152.845 107.797 153.06 108.137 152.05 108.576C151.04 109.015 150.283 109.344 150.123 110.281C149.97 111.173 149.977 113.268 150.411 114.458C152.298 115.866 154.372 118.191 155.299 121.616C155.804 123.481 156.54 125.789 157.293 128.152C159.252 134.296 161.331 140.816 159.783 140.911C157.639 141.043 150.272 129.003 149.039 125.937C148.18 123.8 146.571 119.787 146.549 116.527C146.478 116.506 146.402 116.417 146.323 116.234C145.823 115.084 144.181 113.53 143.387 113.008C142.593 112.486 141.836 112.815 140.826 113.254C139.816 113.693 139.713 113.304 139.566 112.734C139.44 112.247 140.4 111.898 141.127 111.634C141.249 111.589 141.365 111.548 141.467 111.508C142.181 111.231 143.496 111.493 144.433 111.886Z" fill="#2D4D73"/>
<path d="M508.774 303.176C506.734 300.875 501.664 301.872 499.204 302.652C498.696 303.724 497.537 306.226 496.964 307.648C496.391 309.069 491.235 315.398 488.729 318.384C488.778 319.444 489.166 322.189 490.32 324.691C491.763 327.818 494.104 328.808 495.899 329.716C497.695 330.624 499.87 329.044 500.752 327.517C501.634 325.99 501.598 321.587 500.108 319.078C498.619 316.568 498.896 315.284 500.332 313.69C501.768 312.096 507.536 311.302 509.526 309.642C511.516 307.981 510.179 304.76 508.774 303.176Z" fill="#FFC3DC"/>
<path d="M491.096 292.988C494.108 293.605 495.73 298.044 496.285 300.564C495.61 301.54 494.023 303.795 493.079 305.002C492.134 306.21 489.433 314.428 488.099 318.091C487.157 318.578 484.792 319.167 482.049 319.418C478.62 319.732 476.183 318.06 474.499 316.958C472.815 315.857 473.397 313.598 474.279 312.071C475.161 310.544 478.69 307.959 481.608 307.994C484.526 308.029 485.697 307.966 486.359 305.926C487.022 303.885 484.809 297.762 485.252 295.208C485.696 292.654 489.021 292.564 491.096 292.988Z" fill="#FFC3DC"/>
<path fill-rule="evenodd" clip-rule="evenodd" d="M498.602 296.685C498.722 297.173 498.402 298.386 498.147 299.185C498.555 299.038 498.967 298.969 499.38 298.998C499.457 299.236 499.528 299.534 499.583 299.882C500.143 299.284 500.912 298.552 501.348 298.425C502.061 298.218 503.036 298.136 503.53 298.396C503.601 298.433 503.681 298.473 503.766 298.515C504.272 298.767 504.939 299.099 504.807 299.443C504.653 299.843 504.547 300.117 503.851 299.715C503.155 299.313 502.633 299.012 502.014 299.325C501.425 299.623 500.199 300.536 499.689 301.308C499.683 303.026 499.219 305.252 497.613 307.283C496.738 308.389 495.704 309.823 494.645 311.291C491.891 315.108 488.969 319.159 488.241 318.292C487.233 317.091 491.097 307.542 492.36 305.487C493.24 304.056 494.896 301.369 496.799 299.941C496.78 299.89 496.799 299.807 496.872 299.681C497.33 298.889 497.528 297.25 497.489 296.558C497.451 295.866 496.929 295.564 496.233 295.162C495.537 294.761 495.721 294.532 495.991 294.198C496.222 293.912 496.844 294.324 497.314 294.636C497.393 294.688 497.468 294.738 497.536 294.781C498.008 295.079 498.425 295.964 498.602 296.685Z" fill="#2D4D73"/>
<path d="M563 62C563 102.869 516.869 129 476 129C435.131 129 398 98.3691 398 57.5C398 16.6309 435.131 -17 476 -17C535 -17 563 21.1309 563 62Z" fill="#0073E6"/>
<path d="M436.326 34.876C435.966 34.876 435.534 34.804 435.03 34.66C434.454 34.492 433.938 34.408 433.482 34.408C432.57 34.408 431.754 34.72 431.034 35.344C430.338 35.968 429.99 36.82 429.99 37.9C429.99 38.932 430.35 39.772 431.07 40.42C431.814 41.068 432.642 41.392 433.554 41.392C434.106 41.392 434.718 41.26 435.39 40.996C435.942 40.78 436.422 40.672 436.83 40.672C437.598 40.672 438.222 41.044 438.702 41.788C438.942 42.196 439.062 42.616 439.062 43.048C439.062 43.984 438.642 44.728 437.802 45.28C436.626 46.048 435.066 46.432 433.122 46.432C430.434 46.432 428.274 45.652 426.642 44.092C425.034 42.532 424.23 40.468 424.23 37.9C424.23 35.5 425.022 33.484 426.606 31.852C428.214 30.196 430.278 29.368 432.798 29.368C434.454 29.368 435.906 29.656 437.154 30.232C438.162 30.688 438.666 31.384 438.666 32.32C438.666 32.704 438.558 33.112 438.342 33.544C437.91 34.432 437.238 34.876 436.326 34.876ZM451.579 44.632L447.511 38.44V43.84C447.511 44.536 447.247 45.136 446.719 45.64C446.215 46.12 445.579 46.36 444.811 46.36C444.043 46.36 443.395 46.12 442.867 45.64C442.363 45.136 442.111 44.536 442.111 43.84V32.14C442.111 31.444 442.363 30.856 442.867 30.376C443.395 29.872 444.043 29.62 444.811 29.62C445.579 29.62 446.215 29.872 446.719 30.376C447.247 30.856 447.511 31.444 447.511 32.14V37.288L450.967 31.42C451.639 30.22 452.539 29.62 453.667 29.62C454.531 29.62 455.215 29.872 455.719 30.376C456.223 30.856 456.475 31.456 456.475 32.176C456.475 32.752 456.295 33.304 455.935 33.832L453.415 37.504L456.547 41.896C456.931 42.424 457.123 43 457.123 43.624C457.123 44.368 456.871 45.016 456.367 45.568C455.863 46.096 455.215 46.36 454.423 46.36C453.319 46.36 452.371 45.784 451.579 44.632ZM477.163 32.32V43.84C477.163 44.536 476.899 45.136 476.371 45.64C475.867 46.12 475.231 46.36 474.463 46.36C473.695 46.36 473.047 46.12 472.519 45.64C472.015 45.136 471.763 44.536 471.763 43.84V37.54L467.119 44.344C466.207 45.688 465.019 46.36 463.555 46.36C462.643 46.36 461.923 46.096 461.395 45.568C460.867 45.04 460.603 44.344 460.603 43.48V32.14C460.603 31.444 460.855 30.856 461.359 30.376C461.887 29.872 462.535 29.62 463.303 29.62C464.071 29.62 464.707 29.872 465.211 30.376C465.739 30.856 466.003 31.444 466.003 32.14V38.26L470.395 31.816C470.923 31.024 471.463 30.46 472.015 30.124C472.591 29.788 473.299 29.62 474.139 29.62C475.027 29.62 475.747 29.896 476.299 30.448C476.875 30.976 477.163 31.6 477.163 32.32ZM494.418 46H484.554V47.08C484.554 47.752 484.302 48.34 483.798 48.844C483.294 49.348 482.706 49.6 482.034 49.6C481.362 49.6 480.774 49.348 480.27 48.844C479.766 48.34 479.514 47.752 479.514 47.08V43.012C479.514 42.46 479.718 41.98 480.126 41.572C480.534 41.164 481.026 40.96 481.602 40.96C482.778 39.424 483.474 36.868 483.69 33.292L483.762 32.32C483.786 31.624 484.062 31.036 484.59 30.556C485.118 30.052 485.73 29.8 486.426 29.8H494.238C494.934 29.8 495.522 30.052 496.002 30.556C496.506 31.06 496.758 31.648 496.758 32.32V40.96C497.502 40.96 498.138 41.212 498.666 41.716C499.194 42.196 499.458 42.784 499.458 43.48V47.08C499.458 47.752 499.206 48.34 498.702 48.844C498.198 49.348 497.61 49.6 496.938 49.6C496.266 49.6 495.678 49.348 495.174 48.844C494.67 48.34 494.418 47.752 494.418 47.08V46ZM487.254 40.96H491.358V34.84H488.946L488.874 35.488C488.586 37.912 488.046 39.736 487.254 40.96ZM511.274 44.632L507.206 38.44V43.84C507.206 44.536 506.942 45.136 506.414 45.64C505.91 46.12 505.274 46.36 504.506 46.36C503.738 46.36 503.09 46.12 502.562 45.64C502.058 45.136 501.806 44.536 501.806 43.84V32.14C501.806 31.444 502.058 30.856 502.562 30.376C503.09 29.872 503.738 29.62 504.506 29.62C505.274 29.62 505.91 29.872 506.414 30.376C506.942 30.856 507.206 31.444 507.206 32.14V37.288L510.662 31.42C511.334 30.22 512.234 29.62 513.362 29.62C514.226 29.62 514.91 29.872 515.414 30.376C515.918 30.856 516.17 31.456 516.17 32.176C516.17 32.752 515.99 33.304 515.63 33.832L513.11 37.504L516.242 41.896C516.626 42.424 516.818 43 516.818 43.624C516.818 44.368 516.566 45.016 516.062 45.568C515.558 46.096 514.91 46.36 514.118 46.36C513.014 46.36 512.066 45.784 511.274 44.632ZM536.858 32.32V43.84C536.858 44.536 536.594 45.136 536.066 45.64C535.562 46.12 534.926 46.36 534.158 46.36C533.39 46.36 532.742 46.12 532.214 45.64C531.71 45.136 531.458 44.536 531.458 43.84V37.54L526.814 44.344C525.902 45.688 524.714 46.36 523.25 46.36C522.338 46.36 521.618 46.096 521.09 45.568C520.562 45.04 520.298 44.344 520.298 43.48V32.14C520.298 31.444 520.55 30.856 521.054 30.376C521.582 29.872 522.23 29.62 522.998 29.62C523.766 29.62 524.402 29.872 524.906 30.376C525.434 30.856 525.698 31.444 525.698 32.14V38.26L530.09 31.816C530.618 31.024 531.158 30.46 531.71 30.124C532.286 29.788 532.994 29.62 533.834 29.62C534.722 29.62 535.442 29.896 535.994 30.448C536.57 30.976 536.858 31.6 536.858 32.32ZM436.27 86H426.406V87.08C426.406 87.752 426.154 88.34 425.65 88.844C425.146 89.348 424.558 89.6 423.886 89.6C423.214 89.6 422.626 89.348 422.122 88.844C421.618 88.34 421.366 87.752 421.366 87.08V83.012C421.366 82.46 421.57 81.98 421.978 81.572C422.386 81.164 422.878 80.96 423.454 80.96C424.63 79.424 425.326 76.868 425.542 73.292L425.614 72.32C425.638 71.624 425.914 71.036 426.442 70.556C426.97 70.052 427.582 69.8 428.278 69.8H436.09C436.786 69.8 437.374 70.052 437.854 70.556C438.358 71.06 438.61 71.648 438.61 72.32V80.96C439.354 80.96 439.99 81.212 440.518 81.716C441.046 82.196 441.31 82.784 441.31 83.48V87.08C441.31 87.752 441.058 88.34 440.554 88.844C440.05 89.348 439.462 89.6 438.79 89.6C438.118 89.6 437.53 89.348 437.026 88.844C436.522 88.34 436.27 87.752 436.27 87.08V86ZM429.106 80.96H433.21V74.84H430.798L430.726 75.488C430.438 77.912 429.898 79.736 429.106 80.96ZM458.274 84.02C456.642 85.628 454.47 86.432 451.758 86.432C449.046 86.432 446.862 85.628 445.206 84.02C443.574 82.412 442.758 80.372 442.758 77.9C442.758 75.428 443.574 73.388 445.206 71.78C446.862 70.172 449.046 69.368 451.758 69.368C454.47 69.368 456.642 70.172 458.274 71.78C459.93 73.388 460.758 75.428 460.758 77.9C460.758 80.372 459.93 82.412 458.274 84.02ZM454.062 75.38C453.438 74.732 452.67 74.408 451.758 74.408C450.846 74.408 450.078 74.732 449.454 75.38C448.83 76.004 448.518 76.844 448.518 77.9C448.518 78.908 448.818 79.748 449.418 80.42C450.042 81.068 450.822 81.392 451.758 81.392C452.694 81.392 453.462 81.08 454.062 80.456C454.686 79.832 454.998 78.98 454.998 77.9C454.998 76.868 454.686 76.028 454.062 75.38ZM478.353 84.524C478.137 85.076 477.777 85.52 477.273 85.856C476.793 86.192 476.253 86.36 475.653 86.36C474.717 86.36 473.985 85.976 473.457 85.208C472.929 84.44 472.845 83.612 473.205 82.724L479.865 66.2H472.449C471.705 66.2 471.069 65.936 470.541 65.408C470.013 64.88 469.749 64.244 469.749 63.5C469.749 62.756 470.013 62.12 470.541 61.592C471.069 61.064 471.705 60.8 472.449 60.8H483.609C484.353 60.8 484.989 61.076 485.517 61.628C486.045 62.156 486.309 62.792 486.309 63.536C486.309 64.184 486.189 64.784 485.949 65.336L478.353 84.524ZM490.657 63.932C492.145 61.652 494.317 60.512 497.173 60.512C500.029 60.512 502.189 61.652 503.653 63.932C505.141 66.212 505.885 69.368 505.885 73.4C505.885 77.432 505.153 80.588 503.689 82.868C502.249 85.148 500.101 86.288 497.245 86.288C494.365 86.288 492.181 85.148 490.693 82.868C489.205 80.564 488.461 77.408 488.461 73.4C488.461 69.368 489.193 66.212 490.657 63.932ZM497.245 81.248C498.277 81.248 499.009 80.672 499.441 79.52C499.897 78.344 500.125 76.304 500.125 73.4C500.125 70.496 499.897 68.468 499.441 67.316C498.985 66.14 498.229 65.552 497.173 65.552C496.141 65.552 495.385 66.152 494.905 67.352C494.449 68.552 494.221 70.568 494.221 73.4C494.221 78.632 495.229 81.248 497.245 81.248ZM533.207 64.148L517.691 84.92C517.307 85.424 516.755 85.676 516.035 85.676C515.603 85.676 515.243 85.568 514.955 85.352C514.475 85.016 514.235 84.536 514.235 83.912C514.235 83.432 514.403 82.976 514.739 82.544L530.183 61.88C530.591 61.376 531.107 61.124 531.731 61.124C532.163 61.124 532.535 61.244 532.847 61.484C533.351 61.892 533.603 62.396 533.603 62.996C533.603 63.428 533.471 63.812 533.207 64.148ZM521.111 71.996C519.695 73.22 517.871 73.832 515.639 73.832C513.407 73.832 511.583 73.22 510.167 71.996C508.751 70.748 508.043 69.104 508.043 67.064C508.043 65.024 508.751 63.404 510.167 62.204C511.583 60.98 513.407 60.368 515.639 60.368C517.871 60.368 519.695 60.98 521.111 62.204C522.527 63.404 523.235 65.024 523.235 67.064C523.235 69.104 522.527 70.748 521.111 71.996ZM517.475 65.336C517.019 64.904 516.407 64.688 515.639 64.688C514.871 64.688 514.247 64.904 513.767 65.336C513.311 65.768 513.083 66.344 513.083 67.064C513.083 67.832 513.323 68.432 513.803 68.864C514.283 69.296 514.895 69.512 515.639 69.512C516.431 69.512 517.055 69.296 517.511 68.864C517.967 68.432 518.195 67.832 518.195 67.064C518.195 66.344 517.955 65.768 517.475 65.336ZM537.779 84.596C536.363 85.82 534.539 86.432 532.307 86.432C530.075 86.432 528.251 85.82 526.835 84.596C525.419 83.348 524.711 81.704 524.711 79.664C524.711 77.624 525.419 76.004 526.835 74.804C528.251 73.58 530.075 72.968 532.307 72.968C534.539 72.968 536.363 73.58 537.779 74.804C539.195 76.004 539.903 77.624 539.903 79.664C539.903 81.704 539.195 83.348 537.779 84.596ZM534.143 77.936C533.687 77.504 533.075 77.288 532.307 77.288C531.539 77.288 530.915 77.504 530.435 77.936C529.979 78.368 529.751 78.944 529.751 79.664C529.751 80.432 529.991 81.032 530.471 81.464C530.951 81.896 531.563 82.112 532.307 82.112C533.099 82.112 533.723 81.896 534.179 81.464C534.635 81.032 534.863 80.432 534.863 79.664C534.863 78.944 534.623 78.368 534.143 77.936Z" fill="white"/>
</g>
<defs>
<clipPath id="clip0_13_4">
<rect width="600" height="380" rx="35" fill="white"/>
</clipPath>
</defs>
</svg>
